<?xml version="1.0" encoding="utf-8"?>
<!-- Generator: Adobe Illustrator 24.3.0, SVG Export Plug-In . SVG Version: 6.00 Build 0)  -->
<svg version="1.1" id="Layer_1" xmlns="http://www.w3.org/2000/svg" xmlns:xlink="http://www.w3.org/1999/xlink" x="0px" y="0px"
	 viewBox="0 0 512 512" style="enable-background:new 0 0 512 512;" xml:space="preserve">
<style type="text/css">
	.st0{fill:#EE3124;}
</style>
<g id="g3">
	<g id="g5">
		<g id="g7">
			<g id="g9">
				<path id="path11" class="st0" d="M83.58,299.15c-23.8,0-43.04-19.23-43.04-43.17c0-23.8,19.23-43.04,43.04-43.04
					c8.44,0,16.19,2.35,22.83,6.5l-22.83,36.53l43.04-24.77c-4.7-7.47-11.35-13.84-19.51-18.68c-10.24-6.23-24.63-9.96-40.54-9.96
					c-22.56,0-42.48,8.16-53.55,20.48C4.84,232.04,0,243.53,0,255.98c0,12.45,4.84,23.94,13.01,33.07
					c11.07,12.32,30.58,20.48,52.86,20.48s41.79-8.16,52.86-20.48c0.55-0.69,1.25-1.38,1.8-2.08l-1.66-6.23
					C111.12,291.82,98.25,299.15,83.58,299.15"/>
				<path id="path13" class="st0" d="M226.11,306.9l-17.99-67.39c-2.91-10.93-12.87-18.82-24.63-18.82c-3.04,0-5.95,0.55-8.72,1.52
					l-38.88,14.11h39.99l6.78,25.46c-6.64-5.67-15.22-9.13-24.63-9.13c-18.82,0-33.9,12.59-33.9,28.09
					c0,15.5,15.22,28.09,33.9,28.09c13.56,0,25.46-6.64,32.8-16.74l4.01,14.81L226.11,306.9 M171.17,296.53
					c-8.72,0-15.64-7.06-15.64-15.64c0-8.72,7.06-15.64,15.64-15.64c8.72,0,15.64,7.06,15.64,15.64
					C186.81,289.47,179.75,296.53,171.17,296.53z"/>
				<path id="path15" class="st0" d="M299.73,220.69c-2.35,0-4.57,0.55-6.64,1.52l-24.91,11.62c-1.25-7.47-7.75-13.15-15.5-13.15
					c-2.35,0-4.57,0.55-6.64,1.52l-30.44,14.25h21.45v70.57h31.41v-62.69c0-4.29,3.46-7.89,7.89-7.89c4.29,0,7.89,3.46,7.89,7.89
					v62.69h31.27v-70.57C315.36,227.75,308.45,220.69,299.73,220.69"/>
				<path id="path17" class="st0" d="M496.36,220.69c-2.35,0-4.57,0.55-6.64,1.52l-24.91,11.62c-1.25-7.47-7.75-13.15-15.5-13.15
					c-2.35,0-4.57,0.55-6.64,1.52l-30.44,14.25h21.45v70.57h31.27v-62.69c0-4.29,3.46-7.89,7.89-7.89c4.29,0,7.89,3.46,7.89,7.89
					v62.69H512v-70.57C512,227.75,504.94,220.69,496.36,220.69"/>
				<path id="path19" class="st0" d="M417.35,265.11c0,24.49-19.93,44.42-44.42,44.42c-24.49,0-44.42-19.93-44.42-44.42
					s19.93-44.42,44.42-44.42C397.42,220.69,417.35,240.62,417.35,265.11 M374.73,234.26c-1.38-5.26-6.78-8.3-12.04-6.92
					c-5.26,1.38-8.3,6.78-6.92,12.04l15.22,56.74c1.38,5.26,6.78,8.3,12.04,6.92c5.26-1.38,8.3-6.78,6.92-12.04L374.73,234.26z"/>
			</g>
		</g>
	</g>
</g>
</svg>
