<?xml version="1.0" encoding="utf-8"?>
<!-- Generator: Adobe Illustrator 26.5.0, SVG Export Plug-In . SVG Version: 6.00 Build 0)  -->
<svg version="1.1" id="Layer_1" xmlns="http://www.w3.org/2000/svg" xmlns:xlink="http://www.w3.org/1999/xlink" x="0px" y="0px"
	 viewBox="0 0 512 512" style="enable-background:new 0 0 512 512;" xml:space="preserve">
<style type="text/css">
	.st0{fill:#001EAA;}
</style>
<g id="XMLID_1_">
	<path id="XMLID_15_" class="st0" d="M127.73,239.26h19.79l0.83,6.5c1.52-5.26,11.49-8.86,17.57-8.86c14.11,0,19.79,8.72,19.79,23.8
		v32.66h-21.86v-29.2c0-5.81-1.11-10.24-6.92-10.24c-5.4,0-8.3,5.81-8.3,9.96v29.47h-20.76v-54.1H127.73z"/>
	<path class="st0" d="M0.01,293.64v-76.8h36.67c21.86,0,31.83,10.65,31.83,26.01c0,16.47-9.13,27.67-31.83,27.67H24.36v22.97H0.01
		V293.64z M34.05,251.99c5.81,0,12.18-1.25,12.18-8.03c0-6.92-6.78-8.44-12.18-8.44h-9.69v16.47L34.05,251.99L34.05,251.99z"/>
	<path id="XMLID_12_" class="st0" d="M368.63,239.26h19.93l0.69,6.5c1.8-5.26,11.76-8.86,17.71-8.86c13.84,0,19.79,8.72,19.79,23.8
		v32.93h-21.86v-29.47c0-5.81-1.25-10.24-7.2-10.24c-5.26,0-8.03,5.81-8.03,9.96v29.75h-21.03L368.63,239.26L368.63,239.26z"/>
	<path id="XMLID_11_" class="st0" d="M268.17,274.13c0,2.21,1.11,5.4,2.35,6.5c1.52,1.11,3.46,2.21,5.81,2.21
		c3.87,0,6.92-1.11,6.92-4.7c0.28-9.13-32.93-1.11-32.93-22.69c0-15.22,11.76-18.68,23.8-18.68c12.18,0,28.78,2.35,28.23,18.82
		h-18.4c0-1.52-0.69-2.63-1.52-3.87c-1.25-1.52-2.77-2.21-5.67-2.35c-3.74-0.28-7.2,0.42-7.2,3.18c0.28,8.44,34.32,2.77,34.32,22.69
		c0,13.84-9.69,20.2-28.64,20.2c-11.9-0.28-26.84-6.23-26.84-21.17L268.17,274.13L268.17,274.13z"/>
	<path id="XMLID_10_" class="st0" d="M492.48,260.29c0-1.25,0-3.04-1.8-5.26c-0.83-1.11-2.77-3.46-5.81-3.46
		c-8.3,0-10.38,8.03-10.38,14.53c0,7.61,3.46,13.84,9.96,13.84c5.67,0,8.44-5.26,8.44-9.55h19.1c0.42,11.21-7.33,24.77-28.37,24.77
		c-17.16,0-29.2-11.9-29.2-29.2c0-21.03,15.64-29.06,29.06-29.06c18.27,0,28.64,11.07,28.37,23.39L492.48,260.29L492.48,260.29z"/>
	<path class="st0" d="M104.48,293.64l-2.21-4.57c-4.15,3.46-8.44,5.4-15.36,5.4c-6.78-0.28-19.93-1.11-19.93-15.64
		c0-23.8,35.56-13.01,35.56-24.77c0-3.87-4.29-3.74-6.78-3.74c-4.29,0-7.2,0.83-7.75,7.33H69.75c0-11.21,3.46-20.76,27.26-20.76
		c23.25,0,25.6,12.18,25.6,24.08v24.77c0,3.32,0.28,4.7,2.35,7.2v0.42L104.48,293.64L104.48,293.64z M102.68,268.73
		c-7.33,3.46-16.74,3.32-16.88,8.72c0,3.46,1.94,5.26,6.23,5.26C99.22,282.57,103.23,275.23,102.68,268.73L102.68,268.73z
		 M226.66,293.64l-2.21-4.57c-4.15,3.46-8.72,5.4-15.36,5.4c-6.92-0.28-20.2-1.11-20.2-15.64c0-23.8,35.56-13.01,35.7-24.77
		c0-3.87-4.57-3.74-6.78-3.74c-4.57,0-7.2,0.83-7.75,7.33h-18.27c0-11.21,3.18-20.76,27.26-20.76c22.97,0,25.32,12.18,25.32,24.08
		v24.77c0,3.32,0.28,4.7,2.35,7.2v0.42L226.66,293.64L226.66,293.64z M225,268.73c-7.33,3.46-16.88,3.32-16.88,8.72
		c0,3.46,1.8,5.26,6.23,5.26C221.27,282.57,225.42,275.23,225,268.73L225,268.73z"/>
	<path class="st0" d="M450.83,293.64v-54.38h-20.2v54.38H450.83L450.83,293.64z M430.63,232.2h20.2v-15.64h-20.2V232.2L430.63,232.2
		z"/>
	<path class="st0" d="M336.25,237.32c17.99,0,29.06,12.59,29.06,29.06c0,16.74-11.07,29.06-29.06,29.06
		c-17.99,0-29.2-12.32-29.2-29.06C306.92,249.77,318.27,237.32,336.25,237.32L336.25,237.32z M326.71,266.24
		c0,6.78,2.21,14.94,9.55,15.22c7.33,0,9.27-8.44,9.27-15.22c0-6.5-1.94-14.94-9.27-14.94C328.78,251.3,326.85,259.74,326.71,266.24
		L326.71,266.24z"/>
</g>
</svg>
