<?xml version="1.0" encoding="utf-8"?>
<!-- Generator: Adobe Illustrator 26.5.0, SVG Export Plug-In . SVG Version: 6.00 Build 0)  -->
<svg version="1.1" id="Layer_1" xmlns="http://www.w3.org/2000/svg" xmlns:xlink="http://www.w3.org/1999/xlink" x="0px" y="0px"
	 viewBox="0 0 512 512" style="enable-background:new 0 0 512 512;" xml:space="preserve">
<style type="text/css">
	.st0{fill:#1476C6;}
</style>
<g id="g2853_1_">
	<path id="path2859_1_" class="st0" d="M173.62,210.86h-27.55v35.86h-28.66v-35.86H89.86V301h27.55v-35.44h28.66V301h27.55V210.86z
		 M269.43,283v-72h-27.55v90.13h49.7l4.15-18.14H269.43z M221.53,210.86h-27.55V301h27.55V210.86z M333.12,210.86h-27.55V301h27.55
		V210.86z M468.8,233.99c0-4.85,4.85-7.2,12.88-7.2c8.72,0,18.14,1.94,24.51,4.57l-2.35-19.66c-7.2-1.52-13.57-2.63-25.2-2.63
		c-22.29,0-37.38,8.72-37.38,27.14c0,31.71,42.92,25.34,42.92,40.01c0,5.68-4.15,8.72-14.4,8.72c-9,0-22.98-3.05-31.29-7.2
		l3.05,20.77c8.31,3.05,19.66,4.57,28.66,4.57c22.98,0,41.81-7.61,41.81-30.18C512.14,242.57,468.8,248.25,468.8,233.99
		 M391.13,279.54c25.61,0,41.81-13.15,41.81-36.27c0-25.34-17.31-34.34-45.55-34.34c-10.94,0-24.09,0.69-33.51,1.94V301h27.55
		v-21.46H391.13z M405.81,243.68c0,11.63-5.68,19.66-19.94,19.66h-4.57v-37.24c1.66-0.14,3.05-0.14,4.57-0.14
		C399.44,225.96,405.81,232.46,405.81,243.68 M37.24,279.54c25.61,0,41.81-13.15,41.81-36.27c0-25.34-17.31-34.34-45.55-34.34
		c-10.94,0-24.09,0.69-33.51,1.94V301h27.55v-21.46H37.24z M51.92,243.68c0,11.63-5.68,19.66-19.94,19.66h-4.57v-37.24
		c1.66-0.14,3.05-0.14,4.57-0.14C45.41,225.96,51.92,232.46,51.92,243.68"/>
</g>
</svg>
