<?xml version="1.0" encoding="utf-8"?>
<!-- Generator: Adobe Illustrator 27.0.0, SVG Export Plug-In . SVG Version: 6.00 Build 0)  -->
<svg version="1.1" id="Layer_1" xmlns="http://www.w3.org/2000/svg" xmlns:xlink="http://www.w3.org/1999/xlink" x="0px" y="0px"
	 viewBox="0 0 512 512" style="enable-background:new 0 0 512 512;" xml:space="preserve">
<style type="text/css">
	.st0{fill:#074CA1;}
</style>
<g id="XMLID_1_">
	<polygon id="XMLID_7_" class="st0" points="109.71,220.45 78.7,220.45 66.41,289.79 85.43,289.79 93.18,235.81 95.09,235.81 
		102.99,289.79 122,289.79 	"/>
	<polygon id="XMLID_6_" class="st0" points="199.53,289.79 198.66,237.57 196.9,237.57 187.98,289.79 169.4,289.79 160.48,237.57 
		158.72,237.57 157.84,289.79 140.14,289.79 142.92,220.45 172.62,220.45 177.88,258.78 179.49,258.78 184.61,220.45 214.31,220.45 
		217.23,289.79 	"/>
	<polygon id="XMLID_5_" class="st0" points="308.52,274.58 308.37,220.45 327.83,220.45 327.83,273.55 327.83,273.85 327.83,274.14 
		327.97,274.43 327.97,274.72 327.97,275.02 327.97,275.31 328.12,275.46 328.27,275.75 328.27,276.04 328.41,276.33 328.56,276.48 
		328.7,276.77 328.85,276.92 329,277.21 329.14,277.36 329.29,277.5 329.44,277.8 329.73,277.94 329.87,278.09 330.17,278.24 
		330.31,278.38 330.61,278.53 330.75,278.67 331.04,278.82 331.34,278.97 331.48,278.97 331.78,279.11 332.07,279.11 332.36,279.11 
		332.65,279.26 332.95,279.26 333.24,279.26 333.53,279.26 333.68,279.26 333.97,279.11 334.26,279.11 334.56,279.11 334.85,278.97 
		335.14,278.97 335.29,278.82 335.58,278.67 335.87,278.53 336.02,278.38 336.31,278.24 336.46,278.09 336.6,277.94 336.9,277.8 
		337.04,277.5 337.19,277.36 337.33,277.21 337.48,276.92 337.63,276.77 337.77,276.48 337.92,276.33 338.07,276.04 338.21,275.75 
		338.21,275.46 338.36,275.31 338.36,275.02 338.36,274.72 338.51,274.43 338.51,274.14 338.51,273.85 338.51,273.55 338.51,220.45 
		357.96,220.45 357.96,274.87 357.96,276.04 357.81,277.07 357.67,278.24 357.38,279.26 357.08,280.28 356.79,281.31 356.35,282.19 
		355.77,283.06 355.33,283.94 354.74,284.82 354.01,285.55 353.43,286.28 352.69,287.01 351.82,287.74 351.09,288.33 350.21,288.91 
		349.33,289.5 348.45,290.08 347.43,290.52 346.4,291.11 345.38,291.4 344.36,291.84 343.33,292.13 342.31,292.57 341.14,292.72 
		340.11,293.01 337.77,293.45 335.43,293.6 333.24,293.6 330.9,293.6 328.56,293.3 326.36,293.01 325.19,292.72 324.02,292.43 
		323,292.13 321.97,291.84 320.95,291.4 319.93,290.96 318.9,290.52 318.03,289.94 317,289.5 316.12,288.91 315.25,288.18 
		314.51,287.6 313.78,286.87 313.05,286.13 312.32,285.4 311.73,284.53 311.15,283.79 310.56,282.92 310.13,281.89 309.69,281.01 
		309.25,279.99 308.96,278.97 308.81,277.94 308.52,276.77 308.52,275.75 	"/>
	<polygon id="XMLID_4_" class="st0" points="440.61,220.45 423.79,220.45 423.79,263.9 423.35,263.9 403.75,220.45 382.98,220.45 
		382.98,289.79 399.8,289.79 399.8,249.27 400.24,249.27 418.67,289.79 440.61,289.79 	"/>
	<polygon id="XMLID_3_" class="st0" points="237.86,276.19 237.86,266.97 257.32,266.97 257.17,271.07 257.17,272.09 257.17,272.97 
		257.17,273.41 257.32,273.85 257.32,274.29 257.46,274.72 257.61,275.02 257.61,275.16 257.76,275.46 257.9,275.6 257.9,275.75 
		258.05,275.89 258.05,276.04 258.19,276.19 258.34,276.33 258.49,276.48 258.63,276.63 258.78,276.77 258.93,276.92 259.07,277.07 
		259.22,277.21 259.36,277.36 259.51,277.36 259.66,277.5 259.95,277.65 260.1,277.65 260.24,277.8 260.53,277.94 260.83,277.94 
		261.27,278.09 261.85,278.24 262.44,278.24 263.02,278.24 263.17,278.24 263.31,278.24 263.46,278.24 263.61,278.24 263.75,278.24 
		263.9,278.24 264.05,278.24 264.19,278.24 264.34,278.09 264.63,277.94 264.92,277.8 265.22,277.65 265.51,277.5 265.8,277.36 
		266.09,277.07 266.39,276.92 266.53,276.63 266.83,276.33 266.97,276.04 267.26,275.75 267.41,275.46 267.56,275.02 267.7,274.72 
		267.85,274.29 268,273.99 268,273.55 268,273.12 268,272.68 268,272.24 268,271.8 268,271.21 267.85,270.77 267.7,270.34 
		267.56,269.75 267.26,269.17 266.97,268.73 266.83,268.43 266.68,268.14 266.53,267.85 266.39,267.7 266.24,267.41 266.09,267.26 
		265.65,266.83 265.22,266.39 264.78,265.95 264.19,265.65 263.75,265.22 262.58,264.63 261.41,263.9 258.63,262.58 255.56,261.12 
		252.2,259.36 250.29,258.34 248.54,257.17 246.78,255.85 244.88,254.24 244.59,254.1 244.3,253.95 244.15,253.66 243.86,253.37 
		243.57,253.22 243.42,252.93 242.83,252.34 242.54,251.9 242.1,251.17 241.66,250.59 241.37,250 241.08,249.27 240.79,248.54 
		240.49,247.81 240.35,247.08 239.91,245.47 239.62,243.86 239.32,242.1 239.18,240.49 239.03,238.88 239.03,237.28 239.03,235.67 
		239.18,234.2 239.32,232.74 239.47,231.57 239.76,230.55 239.91,229.67 240.2,228.79 240.64,227.91 241.08,227.18 241.52,226.3 
		241.96,225.57 242.54,224.84 243.13,224.26 243.71,223.67 244.44,222.94 245.17,222.5 245.91,221.92 246.64,221.48 247.37,220.89 
		248.25,220.45 249.12,220.16 250,219.72 250.88,219.43 251.9,219.14 253.81,218.55 255.71,218.11 257.76,217.82 259.8,217.67 
		262,217.67 264.05,217.67 266.09,217.82 268.14,218.11 270.19,218.55 272.24,218.99 273.99,219.57 275.89,220.16 277.5,220.89 
		278.38,221.33 279.11,221.77 279.84,222.21 280.58,222.79 281.31,223.23 281.89,223.82 282.48,224.26 283.06,224.84 283.65,225.43 
		284.09,226.01 284.53,226.74 284.67,227.04 284.82,227.33 285.11,227.62 285.26,228.06 285.4,228.35 285.4,228.64 285.55,229.08 
		285.7,229.38 285.7,229.67 285.84,230.11 285.84,230.4 285.99,230.84 285.99,231.28 285.99,231.57 285.99,241.23 268.29,241.23 
		268.43,237.13 268.43,236.25 268.29,235.37 268.29,234.93 268.29,234.64 268.14,234.2 268,233.91 268,233.76 268,233.62 
		267.85,233.47 267.85,233.18 267.7,233.03 267.56,232.89 267.56,232.74 267.41,232.74 267.26,232.59 267.26,232.45 267.12,232.3 
		266.97,232.16 266.83,232.01 266.68,232.01 266.53,231.86 266.39,231.72 266.09,231.72 265.95,231.57 265.8,231.42 265.65,231.42 
		265.36,231.28 265.22,231.28 264.63,231.13 264.19,230.99 263.61,230.99 263.02,230.99 262.44,230.99 262.14,230.99 261.85,230.99 
		261.71,230.99 261.41,231.13 261.12,231.13 260.83,231.28 260.53,231.42 260.39,231.57 260.1,231.57 259.8,231.86 259.51,232.01 
		259.36,232.16 259.07,232.3 258.93,232.59 258.63,232.89 258.49,233.03 258.34,233.18 258.19,233.33 258.19,233.47 258.05,233.62 
		258.05,233.76 257.9,233.91 257.9,234.06 257.76,234.2 257.76,234.5 257.76,234.64 257.61,234.79 257.61,234.93 257.61,235.08 
		257.61,235.37 257.61,235.52 257.46,235.67 257.46,235.96 257.46,236.11 257.61,236.4 257.61,236.54 257.61,236.98 257.76,237.42 
		257.9,238.01 258.05,238.45 258.19,238.88 258.49,239.47 258.93,240.05 259.51,240.64 260.1,241.23 260.53,241.81 261.71,242.83 
		262.88,243.71 264.05,244.59 265.36,245.32 266.68,246.05 267.85,246.64 272.97,248.98 275.6,250.15 276.77,250.73 277.94,251.47 
		279.11,252.05 280.14,252.78 280.72,253.22 281.31,253.66 281.75,254.1 282.19,254.54 282.62,254.98 283.21,255.56 283.5,256.15 
		283.94,256.59 284.38,257.17 284.82,257.9 285.11,258.49 285.4,259.22 285.7,259.95 285.99,260.68 286.28,261.41 286.57,262.29 
		286.72,263.17 286.87,264.05 287.16,264.92 287.16,265.95 287.45,268 287.45,270.34 287.31,272.82 287.16,275.6 287.01,276.63 
		286.87,277.5 286.57,278.53 286.28,279.41 285.84,280.28 285.4,281.16 284.96,282.04 284.38,282.77 283.79,283.5 283.21,284.23 
		282.48,284.96 281.75,285.7 281.01,286.28 280.28,286.87 279.41,287.45 278.53,287.89 277.65,288.33 276.77,288.91 275.75,289.21 
		274.87,289.65 273.85,290.08 272.82,290.38 270.63,290.96 268.43,291.25 266.24,291.55 264.05,291.84 261.85,291.84 259.51,291.69 
		257.32,291.55 255.12,291.25 253.07,290.82 251.03,290.23 248.98,289.5 248.1,289.06 247.08,288.62 246.2,288.18 245.47,287.74 
		244.59,287.31 243.86,286.72 243.13,286.13 242.4,285.55 241.66,284.96 241.08,284.23 240.49,283.65 240.05,282.92 239.47,282.19 
		239.32,281.75 239.03,281.31 238.88,281.01 238.74,280.58 238.59,280.14 238.45,279.7 238.3,279.26 238.15,278.82 238.15,278.38 
		238.01,277.94 238.01,277.5 237.86,277.07 237.86,276.63 	"/>
	<polygon id="XMLID_2_" class="st0" points="23.84,217.53 20.92,217.82 18.14,218.11 16.82,218.4 15.65,218.7 14.48,218.99 
		13.31,219.28 12.29,219.72 11.26,220.16 10.24,220.6 9.36,221.04 8.48,221.48 7.75,222.06 7.02,222.65 6.29,223.23 5.71,223.82 
		4.97,224.4 4.53,225.13 3.95,225.72 3.51,226.45 3.07,227.18 2.63,227.91 2.34,228.64 1.9,229.38 1.61,230.11 1.46,230.84 
		1.17,231.72 1.02,232.45 0.88,233.18 0.73,234.06 0.73,234.79 0.59,236.4 0.59,238.01 0.73,239.62 0.88,241.23 1.17,242.69 
		1.61,244.15 2.05,245.61 2.49,246.93 2.93,248.25 3.51,249.42 4.1,250.59 4.68,251.61 5.27,252.49 5.56,252.93 5.85,253.22 
		6.14,253.51 6.44,253.81 6.73,254.1 6.88,254.24 7.02,254.24 8.92,255.85 10.68,257.17 12.58,258.34 14.34,259.36 17.7,261.12 
		20.77,262.58 23.55,263.9 24.72,264.63 25.89,265.22 26.48,265.65 26.92,265.95 27.36,266.39 27.79,266.83 28.23,267.26 
		28.38,267.41 28.53,267.7 28.67,267.85 28.82,268.14 28.96,268.43 29.11,268.73 29.4,269.17 29.7,269.75 29.84,270.34 
		29.99,270.77 30.13,271.21 30.13,271.8 30.28,272.24 30.28,272.68 30.28,273.12 30.13,273.55 30.13,273.99 29.99,274.29 
		29.84,274.72 29.7,275.02 29.55,275.46 29.4,275.75 29.26,276.04 28.96,276.33 28.67,276.63 28.53,276.92 28.23,277.07 
		27.94,277.36 27.65,277.5 27.5,277.65 27.21,277.8 26.92,277.94 26.62,278.09 26.33,278.24 26.19,278.24 26.04,278.24 
		25.89,278.24 25.75,278.24 25.6,278.24 25.45,278.24 25.31,278.24 25.16,278.24 24.58,278.24 23.99,278.24 23.41,278.09 
		22.97,277.94 22.67,277.94 22.53,277.8 22.24,277.65 22.09,277.65 21.8,277.5 21.65,277.36 21.5,277.36 21.36,277.21 21.21,277.07 
		21.07,276.92 20.92,276.77 20.77,276.63 20.63,276.48 20.48,276.33 20.33,276.19 20.33,276.04 20.19,275.89 20.04,275.75 
		20.04,275.6 19.89,275.46 19.89,275.16 19.75,275.02 19.6,274.72 19.6,274.29 19.46,273.85 19.46,273.41 19.31,272.97 
		19.31,272.09 19.31,271.07 19.46,266.97 0,266.97 0,276.19 0,276.63 0,277.07 0.15,277.5 0.15,277.94 0.29,278.38 0.29,278.82 
		0.44,279.26 0.59,279.7 0.73,280.14 0.88,280.58 1.02,281.01 1.32,281.31 1.46,281.75 1.61,282.19 2.19,282.92 2.63,283.65 
		3.22,284.23 3.8,284.96 4.53,285.55 5.27,286.13 6,286.72 6.73,287.31 7.61,287.74 8.48,288.18 9.36,288.62 10.24,289.06 
		11.12,289.5 13.17,290.23 15.21,290.82 17.26,291.25 19.46,291.55 21.8,291.69 23.99,291.84 26.19,291.84 28.53,291.55 
		30.72,291.25 32.77,290.96 34.96,290.38 35.99,290.08 37.01,289.65 37.89,289.21 38.91,288.91 39.79,288.33 40.67,287.89 
		41.55,287.45 42.42,286.87 43.15,286.28 44.03,285.7 44.62,284.96 45.35,284.23 45.93,283.5 46.52,282.77 47.1,282.04 
		47.54,281.16 47.98,280.28 48.42,279.41 48.71,278.53 49.01,277.5 49.15,276.63 49.3,275.6 49.44,272.82 49.59,270.34 49.59,268 
		49.44,265.95 49.3,264.92 49.15,264.05 48.86,263.17 48.71,262.29 48.42,261.41 48.27,260.68 47.98,259.95 47.54,259.22 
		47.25,258.49 46.96,257.9 46.52,257.17 46.08,256.59 45.79,256.15 45.35,255.56 44.91,254.98 44.32,254.54 43.89,254.1 
		43.45,253.66 42.86,253.22 42.42,252.78 41.25,252.05 40.08,251.47 38.91,250.73 37.74,250.15 35.25,248.98 29.99,246.64 
		28.82,246.05 27.5,245.32 26.33,244.59 25.01,243.71 23.84,242.83 22.82,241.81 22.24,241.23 21.65,240.64 21.21,240.05 
		20.63,239.47 20.33,238.88 20.19,238.45 20.04,238.01 19.89,237.42 19.75,236.98 19.75,236.54 19.75,236.4 19.75,236.11 
		19.75,235.96 19.75,235.67 19.75,235.52 19.75,235.37 19.75,235.08 19.75,234.93 19.75,234.79 19.89,234.64 19.89,234.5 
		20.04,234.2 20.04,234.06 20.04,233.91 20.19,233.76 20.19,233.62 20.33,233.47 20.48,233.33 20.48,233.18 20.63,233.03 
		20.77,232.89 21.07,232.59 21.21,232.3 21.5,232.16 21.8,232.01 21.94,231.86 22.24,231.57 22.53,231.57 22.82,231.42 
		22.97,231.28 23.26,231.13 23.55,231.13 23.84,230.99 24.14,230.99 24.28,230.99 24.58,230.99 25.16,230.99 25.75,230.99 
		26.33,230.99 26.92,231.13 27.36,231.28 27.5,231.28 27.79,231.42 27.94,231.42 28.09,231.57 28.38,231.72 28.53,231.72 
		28.67,231.86 28.82,232.01 28.96,232.01 29.11,232.16 29.26,232.3 29.4,232.45 29.4,232.59 29.55,232.74 29.7,232.74 29.84,232.89 
		29.84,233.03 29.99,233.18 29.99,233.47 30.13,233.62 30.13,233.76 30.28,233.91 30.28,234.2 30.43,234.64 30.43,234.93 
		30.57,235.37 30.57,236.25 30.57,237.13 30.43,241.23 48.13,241.23 48.13,231.57 48.13,231.13 48.13,230.55 47.98,230.11 
		47.98,229.52 47.84,229.08 47.69,228.64 47.54,228.21 47.54,227.77 47.25,227.33 47.1,226.89 46.96,226.6 46.67,226.16 
		46.52,225.72 46.23,225.43 45.93,224.99 45.79,224.69 45.49,224.4 45.2,224.11 44.76,223.67 44.47,223.38 43.89,222.79 
		43.15,222.21 42.28,221.77 41.55,221.33 40.67,220.89 39.79,220.45 38.91,220.01 37.89,219.72 35.99,219.14 33.94,218.7 
		32.04,218.26 29.84,217.97 27.79,217.82 	"/>
	<polygon id="XMLID_8_" class="st0" points="489.91,294.33 492.11,294.47 494.3,294.33 496.2,294.18 497.96,294.03 499.57,293.74 
		501.03,293.3 501.76,293.16 502.49,292.86 503.08,292.72 503.66,292.43 504.25,292.13 504.83,291.84 505.42,291.55 505.86,291.25 
		506.44,290.96 506.88,290.52 507.32,290.23 507.61,289.79 508.05,289.5 508.34,289.06 508.78,288.62 509.07,288.18 509.37,287.89 
		509.66,287.45 509.95,287.01 510.1,286.57 510.39,286.13 510.54,285.7 510.83,284.67 511.12,283.79 511.41,282.92 511.56,281.89 
		511.71,281.01 511.85,279.99 512,279.11 512,277.21 512,275.46 512,272.38 512,253.51 489.03,253.51 489.03,263.61 493.71,263.61 
		493.71,275.46 493.71,275.75 493.71,276.04 493.71,276.19 493.57,276.48 493.57,276.77 493.57,276.92 493.42,277.21 493.28,277.36 
		493.28,277.65 493.13,277.8 492.98,278.09 492.84,278.24 492.69,278.53 492.54,278.67 492.4,278.82 492.25,278.97 492.11,279.11 
		491.96,279.26 491.67,279.41 491.52,279.55 491.37,279.7 491.08,279.84 490.93,279.99 490.64,280.14 490.5,280.14 490.2,280.28 
		490.06,280.28 489.76,280.43 489.47,280.43 489.18,280.43 489.03,280.43 488.74,280.43 488.45,280.43 488.16,280.43 488.01,280.43 
		487.72,280.43 487.42,280.28 487.28,280.28 486.99,280.14 486.84,280.14 486.55,279.99 486.4,279.84 486.11,279.7 485.96,279.55 
		485.81,279.41 485.52,279.26 485.38,279.11 485.23,278.97 485.08,278.82 484.94,278.67 484.79,278.53 484.64,278.24 484.5,278.09 
		484.35,277.8 484.21,277.65 484.21,277.36 484.06,277.21 483.91,276.92 483.91,276.77 483.91,276.48 483.77,276.19 483.77,276.04 
		483.77,275.75 483.77,275.46 483.77,236.69 483.77,236.54 483.77,236.25 483.77,235.96 483.91,235.67 483.91,235.52 483.91,235.23 
		484.06,235.08 484.21,234.79 484.21,234.64 484.35,234.35 484.5,234.2 484.64,233.91 484.79,233.76 484.94,233.62 485.08,233.33 
		485.23,233.18 485.38,233.03 485.52,232.89 485.81,232.74 485.96,232.59 486.11,232.45 486.4,232.3 486.55,232.3 486.84,232.16 
		486.99,232.01 487.28,232.01 487.42,231.86 487.72,231.86 488.01,231.86 488.16,231.72 488.45,231.72 488.74,231.72 489.03,231.72 
		489.18,231.72 489.47,231.86 489.76,231.86 490.06,231.86 490.2,232.01 490.5,232.01 490.64,232.16 490.93,232.3 491.08,232.3 
		491.37,232.45 491.52,232.59 491.67,232.74 491.96,232.89 492.11,233.03 492.25,233.18 492.4,233.33 492.54,233.62 492.69,233.76 
		492.84,233.91 492.98,234.2 493.13,234.35 493.28,234.64 493.28,234.79 493.42,235.08 493.57,235.23 493.57,235.52 493.57,235.67 
		493.71,235.96 493.71,236.25 493.71,236.54 493.71,236.69 493.71,243.13 512,243.13 512,235.23 511.85,234.2 511.85,233.76 
		511.85,233.18 511.71,232.74 511.71,232.3 511.56,231.86 511.41,231.42 511.27,230.99 511.12,230.55 510.98,230.11 510.83,229.67 
		510.54,229.23 510.39,228.94 509.95,228.06 509.37,227.33 508.93,226.6 508.2,226.01 507.61,225.28 506.88,224.69 506.15,224.11 
		505.42,223.52 504.69,223.09 503.81,222.5 502.93,222.06 502.05,221.62 501.03,221.18 500.15,220.89 499.13,220.6 497.08,220.01 
		495.03,219.57 492.84,219.14 490.64,218.99 488.45,218.99 486.25,218.99 484.21,219.14 482.01,219.43 479.96,219.87 477.92,220.45 
		476.89,220.75 476.01,221.18 474.99,221.48 474.11,221.92 473.23,222.35 472.36,222.94 471.63,223.38 470.89,223.96 470.16,224.55 
		469.43,225.13 468.7,225.87 468.11,226.45 467.68,227.18 467.09,227.91 466.65,228.64 466.51,229.08 466.21,229.52 466.07,229.81 
		465.92,230.25 465.77,230.69 465.63,231.13 465.48,231.57 465.33,232.01 465.33,232.45 465.19,233.03 465.19,233.47 465.19,233.91 
		465.04,234.93 465.04,278.53 465.04,279.11 465.19,279.84 465.19,280.43 465.19,281.01 465.33,281.6 465.48,282.19 465.63,282.77 
		465.77,283.36 465.92,283.79 466.07,284.38 466.36,284.82 466.51,285.26 466.8,285.7 467.09,286.13 467.24,286.57 467.53,287.01 
		467.97,287.45 468.26,287.89 468.55,288.18 468.85,288.62 469.28,288.91 469.58,289.21 470.45,289.94 471.19,290.52 472.06,290.96 
		472.94,291.4 473.97,291.84 474.84,292.28 475.87,292.72 476.89,293.01 477.92,293.3 479.96,293.74 482.01,294.03 484.21,294.33 
		486.25,294.33 488.16,294.47 	"/>
</g>
</svg>
