<?xml version="1.0" encoding="utf-8"?>
<!-- Generator: Adobe Illustrator 27.0.0, SVG Export Plug-In . SVG Version: 6.00 Build 0)  -->
<svg version="1.1" id="Layer_1" xmlns="http://www.w3.org/2000/svg" xmlns:xlink="http://www.w3.org/1999/xlink" x="0px" y="0px"
	 viewBox="0 0 512 512" style="enable-background:new 0 0 512 512;" xml:space="preserve">
<g transform="translate(677.75822,-316.64792)">
	<path id="XMLID_5_" d="M-587.92,533.15h9.83v26.02h-9.83c-4.84-16.19-29.34-18.55-44.57-18.55c-13.43,0-23.39,3.46-23.39,10.24
		c0,7.89,18.82,8.03,34.05,10.1c19.52,2.63,48.17,2.21,48.17,27.82c0,20.21-26.85,26.99-43.6,27.13c-30.04,0-39.45-8.58-46.23-8.58
		c-1.94,0-2.91,1.8-2.91,5.54h-9.83v-29.21h9.83c3.74,17.58,30.73,21.45,42.22,21.45c8.03,0,28.93-1.52,28.93-11.21
		c0-9.14-13.29-8.58-29.62-10.93c-17.72-2.49-52.87-3.05-52.87-26.71c0-18.27,20.49-26.99,43.32-26.99
		c26.58,0,39.86,8.58,43.74,8.58C-588.89,538-587.92,536.34-587.92,533.15L-587.92,533.15z"/>
	<path d="M-495.59,529.28c-36.13,0-59.93,18.55-59.93,43.32c0,24.78,23.95,43.32,59.93,43.32c36.13,0,59.93-18.55,59.93-43.32
		C-435.66,547.96-459.61,529.28-495.59,529.28L-495.59,529.28z M-495.59,540.9c20.62,0,34.33,13.56,34.33,31.84
		c0,18.13-13.7,31.84-34.33,31.84c-20.62,0-34.33-13.56-34.33-31.84C-530.06,554.47-516.36,540.9-495.59,540.9L-495.59,540.9z"/>
	<path id="XMLID_2_" d="M-314.96,611.22h-15.78L-394,557.1v40.28c0,2.77,1.38,4.01,4.01,4.01h11.63v9.83h-47.34v-9.83h11.63
		c2.63,0,4.01-1.38,4.01-4.01V548.1c0-2.63-1.38-4.01-4.01-4.01h-11.63v-9.83h39.73l55.09,47.06V548.1c0-2.63-1.38-4.01-4.01-4.01
		h-11.63v-9.83h47.34v9.83h-11.63c-2.77,0-4.01,1.38-4.01,4.01v63.12H-314.96z"/>
	<path id="XMLID_6_" d="M-212.26,534.12h46.51v9.83h-9.14c-3.88,0-7.06,1.38-9.69,4.01l-31.14,33.22v16.06
		c0,2.77,1.38,4.01,4.01,4.01h11.63v9.83h-56.06v-9.83h11.63c2.77,0,4.01-1.38,4.01-4.01v-15.09l-31.97-34.19
		c-2.63-2.63-5.81-4.01-9.69-4.01h-9.14v-9.83h57.17v9.83h-5.68c-1.38,0-2.21,0.42-2.63,1.38c-0.42,0.97-0.28,1.8,0.42,2.63
		l18.82,20.07l18.82-20.07c0.69-0.83,0.83-1.66,0.42-2.63c-0.42-0.97-1.25-1.38-2.63-1.38h-5.68L-212.26,534.12L-212.26,534.12z"/>
</g>
</svg>
