<?xml version="1.0" encoding="utf-8"?>
<!-- Generator: Adobe Illustrator 27.0.0, SVG Export Plug-In . SVG Version: 6.00 Build 0)  -->
<svg version="1.1" id="Layer_1" xmlns="http://www.w3.org/2000/svg" xmlns:xlink="http://www.w3.org/1999/xlink" x="0px" y="0px"
	 viewBox="0 0 512 512" style="enable-background:new 0 0 512 512;" xml:space="preserve">
<style type="text/css">
	.st0{fill:#EEB111;}
</style>
<g id="XMLID_1_">
	<polygon id="XMLID_35_" points="93.51,292.2 75.59,223.34 57.38,292.2 42.58,292.2 17.12,197.45 31.77,197.45 49.84,266.31 
		68.05,197.45 82.7,197.45 101.05,266.31 119.12,197.45 133.77,197.45 108.31,292.2 	"/>
	<path id="XMLID_34_" d="M140.6,197.74l14.65-1.28v23.19l-0.28,8.68h0.57c6.83-2.56,12.23-3.84,18.92-3.84
		c11.81,0,19.92,5.41,19.92,26.18v41.4h-14.65v-40.12c0-12.52-5.98-14.08-12.8-14.08c-4.27,0-7.82,1-11.52,1.99v52.21h-14.65v-94.32
		H140.6z"/>
	<path d="M214.44,198.73c7.54,0,8.82,4.41,8.82,9.53c0,4.98-1.56,9.67-8.82,9.67s-8.68-4.55-8.68-9.67
		C205.76,203.14,207.04,198.73,214.44,198.73 M207.04,225.62h14.65v66.58h-14.65V225.62z"/>
	<path id="XMLID_31_" d="M234.07,225.62h9.96l1.99,5.41h1c3.84-3.41,9.96-6.4,17.93-6.4c1,0,1.99,0,3.13,0.14v14.65
		c-2.7-0.43-5.41-0.85-8.25-0.85c-3.98,0-7.26,1-11.1,2.7v50.93h-14.65L234.07,225.62L234.07,225.62z"/>
	<polygon id="XMLID_30_" points="274.33,292.2 274.33,197.74 288.98,196.6 288.98,292.2 	"/>
	<path d="M393.26,224.62c20.77,0,28.74,12.52,28.74,34.57c0,20.77-7.4,34.29-29.02,34.29c-21.62,0-29.16-13.51-29.16-34.29
		C363.81,237.14,372.35,224.62,393.26,224.62 M407.06,259.19c0-12.66-1.99-22.9-13.66-22.9c-11.81,0-14.8,9.96-14.8,22.9
		c0,12.09,2.42,22.48,14.08,22.48C404.36,281.81,407.06,271.86,407.06,259.19"/>
	<path d="M458.85,224.62c20.77,0,28.74,12.52,28.74,34.57c0,20.77-7.4,34.29-29.02,34.29c-21.62,0-29.16-13.51-29.16-34.29
		C429.4,237.14,438.07,224.62,458.85,224.62 M472.79,259.19c0-12.66-1.99-22.9-13.66-22.9c-11.81,0-14.8,9.96-14.8,22.9
		c0,12.09,2.42,22.48,14.08,22.48C470.08,281.81,472.79,271.86,472.79,259.19"/>
	<polygon id="XMLID_25_" points="497.4,292.2 497.4,197.74 512.05,196.6 512.05,292.2 	"/>
	<path id="XMLID_24_" d="M354.85,322.64c-1,0.14-2.56,0.57-4.13,0.57c-5.12,0-7.97-2.13-7.97-8.11c0-6.12,3.84-8.39,8.68-8.39
		c1.42,0,2.42,0.28,3.27,0.57v2.85c-0.57-0.14-2.13-0.43-3.27-0.43c-2.85,0-4.98,0.43-4.98,5.26c0,4.69,2.28,5.26,4.84,5.26
		c1.28,0,2.42-0.28,3.7-0.57L354.85,322.64L354.85,322.64z"/>
	<path d="M358.41,314.96c0-6.12,2.85-8.25,7.26-8.25s7.26,2.28,7.26,8.25c0,5.98-2.85,8.25-7.26,8.25
		C361.25,323.21,358.41,320.94,358.41,314.96 M369.22,314.96c0-4.27-1.42-5.55-3.56-5.55c-2.28,0-3.7,1.56-3.7,5.55
		c0,3.98,1.42,5.55,3.7,5.55C367.8,320.51,369.22,319.23,369.22,314.96"/>
	<path d="M377.19,306.99h4.41c4.84,0,6.83,1.28,6.83,4.98c0,2.99-1.56,3.84-3.27,4.41v0.28l0.43,0.14c1.71,0.57,2.56,3.84,3.56,5.83
		v0.43h-3.7c-0.71-2.13-1.56-5.41-3.13-5.83h-1.71v5.83h-3.41L377.19,306.99L377.19,306.99z M381.6,314.68
		c1.71,0,3.13-0.57,3.13-2.56s-1.14-2.42-3.13-2.42h-1.14v4.84h1.14V314.68z"/>
	<path d="M393.12,306.99h4.27c4.69,0,6.83,1.14,6.83,5.12c0,4.13-2.7,5.26-6.12,5.26h-1.71v5.55h-3.41v-15.93H393.12z
		 M396.53,314.96h1.28c1.99,0,2.99-0.71,2.99-2.7c0-1.99-1-2.56-2.85-2.56h-1.42V314.96L396.53,314.96z"/>
	<path d="M407.2,314.96c0-6.12,2.85-8.25,7.26-8.25c4.41,0,7.26,2.28,7.26,8.25c0,5.98-2.85,8.25-7.26,8.25
		C410.05,323.21,407.2,320.94,407.2,314.96 M418.02,314.96c0-4.27-1.42-5.55-3.56-5.55c-2.28,0-3.7,1.56-3.7,5.55
		c0,3.98,1.42,5.55,3.7,5.55C416.59,320.51,418.02,319.23,418.02,314.96"/>
	<path d="M425.98,306.99h4.41c4.84,0,6.83,1.28,6.83,4.98c0,2.99-1.56,3.84-3.27,4.41v0.28l0.43,0.14c1.71,0.57,2.56,3.84,3.56,5.83
		v0.43h-3.7c-0.71-2.13-1.56-5.41-3.13-5.83h-1.71v5.83h-3.41L425.98,306.99L425.98,306.99z M430.39,314.68
		c1.71,0,3.13-0.57,3.13-2.56s-1.14-2.42-3.13-2.42h-1.14v4.84h1.14V314.68z"/>
	<path d="M440.64,322.64l5.55-15.79h3.27l5.83,15.79v0.43h-3.7l-1.28-3.56h-4.98l-1.14,3.56h-3.7L440.64,322.64L440.64,322.64z
		 M449.74,317.09l-1.56-5.55l-0.14-0.85h-0.28l-0.14,0.85l-1.71,5.55H449.74z"/>
	<polygon id="XMLID_11_" points="461.12,309.7 456.71,309.84 456.71,306.99 469.09,306.99 469.09,309.84 464.54,309.7 
		464.54,322.93 461.12,322.93 	"/>
	<rect id="XMLID_10_" x="472.64" y="306.99" width="3.41" height="15.93"/>
	<path d="M480.04,314.96c0-6.12,2.85-8.25,7.26-8.25c4.41,0,7.26,2.28,7.26,8.25c0,5.98-2.85,8.25-7.26,8.25
		C482.89,323.21,480.04,320.94,480.04,314.96 M491,314.96c0-4.27-1.42-5.55-3.56-5.55c-2.28,0-3.7,1.56-3.7,5.55
		c0,3.98,1.42,5.55,3.7,5.55C489.57,320.51,491,319.23,491,314.96"/>
	<polygon id="XMLID_7_" points="498.82,306.99 501.81,306.99 507.64,315.39 508.5,316.81 508.64,316.81 508.64,306.99 
		512.05,306.99 512.05,322.93 509.21,322.93 503.23,314.25 502.52,313.11 502.24,313.11 502.24,322.93 498.82,322.93 	"/>
	<path id="XMLID_6_" class="st0" d="M396.82,152.92c-12.23-13.23-57.9,11.95-104.42,51.07v5.12c45.67-38.84,88.63-61.6,98.45-50.93
		c4.98,5.41,0.57,22.48-10.81,42.25c-1.71,0.71-3.41,2.28-5.12,4.84c-14.51,21.2-35.71,46.95-58.75,69.14
		c-59.32,57.05-116.94,91.62-128.61,79.1c-6.69-7.11,4.27-30.3,24.04-57.9h-5.41c-21.05,29.31-32.44,54.49-24.04,63.59
		c14.65,15.79,81.23-22.9,140.41-79.81c26.89-25.75,47.23-47.66,59.89-67.15c3.7-5.55,3.84-9.53,2.28-11.38
		C398.95,178.25,404.07,160.75,396.82,152.92"/>
	<path id="XMLID_5_" d="M315.59,240.84c3.56-1.28,7.26-1.85,10.95-1.85c7.54,0,12.52,2.28,14.23,9.67
		c3.84-4.27,7.54-8.54,10.95-12.8c-4.13-7.68-10.67-11.24-18.49-11.24c-7.4,0-14.8,3.41-19.21,5.83h-0.71l-1.14-4.84h-11.1v62.74
		c4.69-4.27,9.39-8.54,14.08-13.09C315.59,261.04,315.59,254.07,315.59,240.84"/>
	<path id="XMLID_4_" d="M341.19,261.04c-1,15.08-6.69,19.21-14.94,19.21c-1.71,0-3.13,0-4.55,0c-6.83,6.54-13.8,12.95-20.77,18.92
		v25.04l14.65-1.56v-30.59h0.43c4.13,0.85,8.68,1.42,12.8,1.42c17.07,0,27.31-11.52,27.31-34.85c0-4.41-0.28-8.39-1-11.95
		C350.87,251.08,346.17,255.92,341.19,261.04"/>
	<path id="XMLID_3_" d="M117.56,179.95c0.71-0.57,1.14-1.14,1.28-2.13c0.14-1-0.43-1.56-1.28-1.99c-1.56-0.57-3.7,0-5.12,0.43
		c-0.71,0.28-1.56,0.57-2.42,0.71c-1.71,0.43-3.41,1-5.41,1.28c-1.85,0.43-3.84,0.71-5.98,1c-1.99,0.28-4.13,0.43-6.26,0.57
		c-2.13,0.14-4.27,0.28-6.4,0.28c-0.57,0-1.28,0-1.85,0c-1.85,0-3.84,0-5.69-0.14c-2.7-0.14-5.26-0.28-7.68-0.43
		c-2.56-0.14-4.84-0.43-7.11-0.71c-2.28-0.28-4.41-0.57-6.4-1c-1.99-0.43-3.84-0.71-5.41-1.28c-1.56-0.43-2.85-0.85-4.13-1.28
		c-0.57-0.28-1.28-0.43-1.85-0.43c-0.57,0-1.42,0.14-1.71,0.71c-0.28,0.57,0,1.28,0.43,1.71c0.43,0.43,1,0.85,1.56,1
		c0.28,0.14,0.57,0.28,0.85,0.43c1.42,0.57,2.85,1,4.41,1.42c1.56,0.43,3.27,0.85,5.12,1.28c1.85,0.43,3.7,0.71,5.69,1
		c1.99,0.28,4.13,0.57,6.26,0.85c2.13,0.28,4.41,0.43,6.69,0.57c2.28,0.14,4.55,0.28,6.83,0.28c2.42,0,4.69,0,7.11,0
		c2.42-0.14,4.69-0.14,6.97-0.43c1.71-0.14,3.41-0.28,4.98-0.43c0.43,0,0.85-0.14,1.28-0.14c0,0.85,1.14,1.42,1.71,1.56
		c0.85,0.28,1.71,0.28,2.56,0.28c3.56-0.28,7.11-0.57,10.53-1c3.41-0.43,6.83-1,9.96-1.56c3.13-0.57,6.12-1.28,8.82-1.99
		c2.7-0.71,5.26-1.56,7.4-2.42c2.13-0.85,4.13-1.71,5.69-2.7c1.56-1,2.85-1.99,3.84-2.99s1.56-2.13,1.85-3.13
		c0.28-1.14,0.14-2.13-0.28-3.27c-0.43-1.14-1.28-2.13-2.42-3.13s-2.7-2.13-4.69-2.99c-1.85-1-4.13-1.99-6.69-2.85
		c-2.56-0.85-5.41-1.71-8.54-2.56c-3.13-0.71-6.54-1.42-10.24-2.13c-3.7-0.57-7.54-1.14-11.52-1.56c-4.13-0.43-8.25-0.85-12.66-1.14
		c-4.41-0.28-8.82-0.43-13.23-0.57c-4.55,0-9.1,0-13.51,0.14c-4.55,0.14-8.96,0.43-13.37,0.71c-4.41,0.28-8.68,0.85-12.8,1.28
		c-4.13,0.57-8.11,1.14-11.81,1.99c-3.7,0.71-7.26,1.56-10.53,2.42c-3.27,0.85-6.12,1.85-8.82,2.99c-2.56,1-4.84,2.13-6.83,3.27
		c-1.85,1.14-3.41,2.42-4.55,3.56c-1.14,1.28-1.85,2.56-1.99,3.84c-0.28,1.28-0.14,2.56,0.57,3.84c0.57,1.28,1.71,2.56,3.13,3.84
		c1.42,1.28,3.41,2.42,5.69,3.7c2.28,1.14,4.98,2.28,8.11,3.41c3.13,1,6.54,1.99,10.24,2.99c3.7,0.85,7.82,1.71,12.23,2.42
		c4.41,0.71,8.96,1.42,13.8,1.85c4.84,0.57,9.82,1,14.94,1.28c0.71,0,1.42,0.14,2.28,0.14c0.71,0,1.28,0,1.99-0.28
		c0.57-0.28,1.14-0.71,1.28-1.42c0-0.71-0.57-1.28-1-1.56c-0.57-0.28-1.28-0.43-1.99-0.43c-2.56-0.14-5.26-0.43-7.82-0.57
		c-3.27-0.28-6.4-0.71-9.53-1.14c-3.13-0.43-5.98-0.85-8.82-1.42c-2.7-0.57-5.41-1.14-7.82-1.71c-1.99-0.57-3.98-1-5.69-1.71
		c-4.84-1.56-8.68-3.27-11.38-5.26c-1.14-0.85-2.13-1.71-2.85-2.56c-0.71-0.85-1.28-1.71-1.42-2.56c-0.28-0.85-0.28-1.71-0.14-2.56
		c0.14-0.85,0.57-1.71,1.28-2.56c0.71-0.85,1.56-1.71,2.56-2.42c1-0.85,2.28-1.56,3.84-2.28c1.42-0.71,3.13-1.42,4.98-2.13
		c1-0.43,2.13-0.71,3.13-1.14c1.99-0.57,4.13-1.28,6.54-1.71c1.28-0.28,2.56-0.57,3.84-0.85c2.42-0.43,4.98-1,7.68-1.28
		c2.7-0.43,5.41-0.71,8.25-1c2.85-0.28,5.69-0.57,8.54-0.71s5.83-0.28,8.82-0.28c2.99,0,5.83-0.14,8.82,0
		c2.85,0,5.83,0.14,8.68,0.28c2.85,0.14,5.55,0.43,8.25,0.57c2.7,0.28,5.26,0.57,7.82,0.85c2.56,0.28,4.84,0.71,7.11,1.14
		c4.55,0.85,8.54,1.85,11.95,3.13c3.27,1.14,5.98,2.42,7.97,3.7c1.99,1.28,3.13,2.7,3.7,4.13c0.43,1.42,0.14,2.85-0.85,4.13
		c-1,1.28-2.7,2.56-4.98,3.84c-2.28,1.14-5.12,2.28-8.68,3.27C122.54,178.96,120.12,179.53,117.56,179.95"/>
	<path id="XMLID_2_" d="M43.86,168c-0.71,0.28-1.42,0.43-2.28,0.57c-0.71,0-1.71-0.14-1.99-0.71c-0.43-0.71,0.28-1.56,0.71-1.99
		c0.57-0.57,1.14-0.85,1.85-1.28c9.67-4.55,22.76-6.12,33.15-6.12h1.14c3.84,0,7.54,0.14,11.24,0.57c3.41,0.28,6.83,0.71,9.82,1.28
		c2.99,0.57,5.55,1.14,7.82,1.99c2.13,0.71,3.98,1.56,5.26,2.42c1.28,0.85,2.13,1.71,2.56,2.56c0.14,0.28,0.28,0.71,0.28,1
		c0,0.43-0.14,1-0.43,1.42c-0.57,0.85-1.42,1.56-2.85,2.28c-1.28,0.71-2.99,1.28-4.98,1.85c-1.85,0.57-4.13,1-6.54,1.42
		c-2.28,0.43-4.84,0.57-7.4,0.85c-1.28,0.14-2.56,0.14-3.84,0.14c-1,0-1.99,0-2.99,0c-0.28,0-0.43,0-0.71,0
		c-1.14,0-2.28,0-3.41-0.14c-1.14,0-2.13-0.14-3.27-0.28c-1.99-0.14-3.98-0.43-5.69-0.71c-1.71-0.28-3.13-0.71-4.41-1.14
		c-1.14-0.43-2.13-0.85-2.85-1.28c-0.71-0.43-1.14-0.85-1.28-1.42c-0.14-0.43-0.14-0.85,0.14-1.28c0.28-0.43,0.71-0.71,1.42-1.14
		c0.57-0.28,1.42-0.57,2.28-0.85c0.85-0.28,1.71-0.43,2.85-0.57c0.85-0.14,1.85-0.28,2.99-0.28c0.71,0,1.42,0,2.13,0
		c0.71,0,1.42,0,2.13,0c1,0,1.99,0.14,2.99,0.28c1,0.14,1.99,0.43,2.85,0.57c0.85,0.28,1.71,0.57,2.28,0.85
		c0.71,0.28,1.14,0.71,1.42,1.14c0.28,0.43,0.28,0.85,0.14,1.28c-0.14,0.28-0.28,0.57-0.57,0.85c0.28,0,0.57,0,1,0
		c0.14,0,0.14,0,0.28,0c0.71,0,1.28-0.14,1.99-0.28c0.57-0.14,1.28-0.28,1.85-0.43c0.57-0.14,1.14-0.28,1.71-0.57
		c0.57-0.14,1-0.43,1.42-0.71c0.43-0.28,0.71-0.43,1-0.71c0.28-0.28,0.43-0.57,0.57-0.85c0.14-0.28,0.14-0.57,0-0.85
		c-0.14-0.28-0.28-0.57-0.57-0.85c-0.28-0.28-0.71-0.57-1.14-0.85c-0.43-0.28-1-0.57-1.71-0.85c-0.71-0.28-1.42-0.57-2.28-0.71
		c-0.85-0.28-1.71-0.43-2.85-0.71c-1-0.14-2.13-0.43-3.27-0.57c-1.14-0.14-2.42-0.28-3.56-0.28c-1.28-0.14-2.56-0.14-3.84-0.14
		c-0.14,0-0.28,0-0.43,0C65.35,162.6,53.25,164.02,43.86,168"/>
</g>
</svg>
